<svg width="178" height="40" viewBox="0 0 178 40" fill="none" xmlns="http://www.w3.org/2000/svg" xmlns:c2pa="http://c2pa.org/manifest"><metadata><c2pa:manifest>AAAWgmp1bWIAAAAeanVtZGMycGEAEQAQgAAAqgA4m3EDYzJwYQAAABZcanVtYgAAAEdqdW1kYzJtYQARABCAAACqADibcQN1cm46YzJwYTo4OGI2MmE2OC01OTkyLTRkYmEtODM3Yi0xMjVjNjYxZTk1OWYAAAADl2p1bWIAAAApanVtZGMyYXMAEQAQgAAAqgA4m3EDYzJwYS5hc3NlcnRpb25zAAAAALxqdW1iAAAARGp1bWRjYm9yABEAEIAAAKoAOJtxE2MycGEuaW5ncmVkaWVudC52MwAAAAAYYzJzaP4vYAlgkIzk3gMbe2o96XIAAABwY2JvcqNpZGM6Zm9ybWF0bWltYWdlL3N2Zyt4bWxqaW5zdGFuY2VJRHgseG1wOmlpZDoxNDIwM2VlNy1hYzMyLTRkYWEtODZmNC0yYjczZDViYmU5ZjJscmVsYXRpb25zaGlwaHBhcmVudE9mAAAB4mp1bWIAAABBanVtZGNib3IAEQAQgAAAqgA4m3ETYzJwYS5hY3Rpb25zLnYyAAAAABhjMnNoQBd7Cy11wevYuIMUoto6XgAAAZljYm9yomdhY3Rpb25zgqJmYWN0aW9ua2MycGEub3BlbmVkanBhcmFtZXRlcnOha2luZ3JlZGllbnRzgaJjdXJseC1zZWxmI2p1bWJmPWMycGEuYXNzZXJ0aW9ucy9jMnBhLmluZ3JlZGllbnQudjNkaGFzaFggRuJDxjjW7GcR5mLRhLP9XlxJ6zkgmZUPhowj2ICnHfKkZmFjdGlvbngdY29tLmFudGhyb3BpYy5jbGF1ZGUucHJvdmlkZWRqcGFyYW1ldGVyc6F4H2NvbS5hbnRocm9waWMub3JpZ2luLWNvbmZpZGVuY2VndW5rbm93bmtkZXNjcmlwdGlvbnhmQ2xhdWRlIHByb3ZpZGVkIHRoaXMgZmlsZSBhdCB0aGUgcmVxdWVzdCBvZiBhIHVzZXIgYW5kIG1heSBoYXZlIGNyZWF0ZWQgb3IgbW9kaWZpZWQgdGhlIGZpbGUgY29udGVudHMubXNvZnR3YXJlQWdlbnShZG5hbWVmQ2xhdWRlcmFsbEFjdGlvbnNJbmNsdWRlZPUAAADIanVtYgAAAEBqdW1kY2JvcgARABCAAACqADibcRNjMnBhLmhhc2guZGF0YQAAAAAYYzJzaDMa0UOZbbqjquwk5zrdshEAAACAY2JvcqVjYWxnZnNoYTI1NmNwYWRNAAAAAAAAAAAAAAAAAGRoYXNoWCAceFbw77nw9MF59onbuY0gy2UoWqFxQp1ww2rMp6yywGRuYW1lbmp1bWJmIG1hbmlmZXN0amV4Y2x1c2lvbnOBomVzdGFydBigZmxlbmd0aBkeBAAAAj5qdW1iAAAAJ2p1bWRjMmNsABEAEIAAAKoAOJtxA2MycGEuY2xhaW0udjIAAAACD2Nib3KlY2FsZ2ZzaGEyNTZpc2lnbmF0dXJleE1zZWxmI2p1bWJmPS9jMnBhL3VybjpjMnBhOjg4YjYyYTY4LTU5OTItNGRiYS04MzdiLTEyNWM2NjFlOTU5Zi9jMnBhLnNpZ25hdHVyZWppbnN0YW5jZUlEeCx4bXA6aWlkOjVlY2Y2MTVkLWY3YjctNGVhYy04NGNjLTNmOTIyZTNkZDFmYnJjcmVhdGVkX2Fzc2VydGlvbnODomN1cmx4LXNlbGYjanVtYmY9YzJwYS5hc3NlcnRpb25zL2MycGEuaW5ncmVkaWVudC52M2RoYXNoWCBG4kPGONbsZxHmYtGEs/1eXEnrOSCZlQ+GjCPYgKcd8qJjdXJseCpzZWxmI2p1bWJmPWMycGEuYXNzZXJ0aW9ucy9jMnBhLmFjdGlvbnMudjJkaGFzaFggqwqeE09aXh7TS22nr/qeEsON6AnlpAK3OaYX3QC9xSWiY3VybHgpc2VsZiNqdW1iZj1jMnBhLmFzc2VydGlvbnMvYzJwYS5oYXNoLmRhdGFkaGFzaFgg55072EQYse1i2ERhsb9/+ZnpgOCTObl1aZhQ7zMR5M90Y2xhaW1fZ2VuZXJhdG9yX2luZm+jZG5hbWVvQW50aHJvcGljIEZpbGVzZ3ZlcnNpb25lMS4wLjBrc3BlY1ZlcnNpb25lMi40LjAAABA4anVtYgAAAChqdW1kYzJjcwARABCAAACqADibcQNjMnBhLnNpZ25hdHVyZQAAABAIY2JvctKEWQISogEmGCFZAgowggIGMIIBjaADAgECAhRA5aAK7sI50L64g/oGQgU9Z1UTADAKBggqhkjOPQQDAzBJMRcwFQYDVQQKEw5BbnRocm9waWMsIFBCQzEuMCwGA1UEAxMlQW50aHJvcGljIENvbnRlbnQgQ3JlZGVudGlhbHMgUm9vdCBDQTAeFw0yNjA4MDcxODQzNTZaFw0yODA4MDYxOTQzNTZaMEQxFzAVBgNVBAoTDkFudGhyb3BpYywgUEJDMSkwJwYDVQQDEyBBbnRocm9waWMgQ2xhdWRlIENvbnRlbnQgU2lnbmluZzBZMBMGByqGSM49AgEGCCqGSM49AwEHA0IABJh6CmvLUBgFFNU0vUKlOVtE6djd17L5SuwX0LemFisBM3dkd/3cyjxFA3Qo5S46fX0/ihY0VZ7mfb9KF703t5OjWDBWMA4GA1UdDwEB/wQEAwIHgDAVBgNVHSUEDjAMBgorBgEEAYPoXgIBMAwGA1UdEwEB/wQCMAAwHwYDVR0jBBgwFoAUzlHiBIFOZFsj+OPEz5o+nMHXXMIwCgYIKoZIzj0EAwMDZwAwZAIwMXMdFJ4BetLLVY7ORuE9noqbbAZOZn/aArXyTwFAZfKrPzxF2vPoJNf1+UCdg1XGAjBwX1zd9WGqYkqmL5SFqw1QySjr1zJfpJM9+1rdDwSPLMOPOjKuiXjoU/pUUeG9RwmhY3BhZFkNngAAAAAAAAAAAAAAAAAAAAAAAAAAAAAAAAAAAAAAAAAAAAAAAAAAAAAAAAAAAAAAAAAAAAAAAAAAAAAAAAAAAAAAAAAAAAAAAAAAAAAAAAAAAAAAAAAAAAAAAAAAAAAAAAAAAAAAAAAAAAAAAAAAAAAAAAAAAAAAAAAAAAAAAAAAAAAAAAAAAAAAAAAAAAAAAAAAAAAAAAAAAAAAAAAAAAAAAAAAAAAAAAAAAAAAAAAAAAAAAAAAAAAAAAAAAAAAAAAAAAAAAAAAAAAAAAAAAAAAAAAAAAAAAAAAAAAAAAAAAAAAAAAAAAAAAAAAAAAAAAAAAAAAAAAAAAAAAAAAAAAAAAAAAAAAAAAAAAAAAAAAAAAAAAAAAAAAAAAAAAAAAAAAAAAAAAAAAAAAAAAAAAAAAAAAAAAAAAAAAAAAAAAAAAAAAAAAAAAAAAAAAAAAAAAAAAAAAAAAAAAAAAAAAAAAAAAAAAAAAAAAAAAAAAAAAAAAAAAAAAAAAAAAAAAAAAAAAAAAAAAAAAAAAAAAAAAAAAAAAAAAAAAAAAAAAAAAAAAAAAAAAAAAAAAAAAAAAAAAAAAAAAAAAAAAAAAAAAAAAAAAAAAAAAAAAAAAAAAAAAAAAAAAAAAAAAAAAAAAAAAAAAAAAAAAAAAAAAAAAAAAAAAAAAAAAAAAAAAAAAAAAAAAAAAAAAAAAAAAAAAAAAAAAAAAAAAAAAAAAAAAAAAAAAAAAAAAAAAAAAAAAAAAAAAAAAAAAAAAAAAAAAAAAAAAAAAAAAAAAAAAAAAAAAAAAAAAAAAAAAAAAAAAAAAAAAAAAAAAAAAAAAAAAAAAAAAAAAAAAAAAAAAAAAAAAAAAAAAAAAAAAAAAAAAAAAAAAAAAAAAAAAAAAAAAAAAAAAAAAAAAAAAAAAAAAAAAAAAAAAAAAAAAAAAAAAAAAAAAAAAAAAAAAAAAAAAAAAAAAAAAAAAAAAAAAAAAAAAAAAAAAAAAAAAAAAAAAAAAAAAAAAAAAAAAAAAAAAAAAAAAAAAAAAAAAAAAAAAAAAAAAAAAAAAAAAAAAAAAAAAAAAAAAAAAAAAAAAAAAAAAAAAAAAAAAAAAAAAAAAAAAAAAAAAAAAAAAAAAAAAAAAAAAAAAAAAAAAAAAAAAAAAAAAAAAAAAAAAAAAAAAAAAAAAAAAAAAAAAAAAAAAAAAAAAAAAAAAAAAAAAAAAAAAAAAAAAAAAAAAAAAAAAAAAAAAAAAAAAAAAAAAAAAAAAAAAAAAAAAAAAAAAAAAAAAAAAAAAAAAAAAAAAAAAAAAAAAAAAAAAAAAAAAAAAAAAAAAAAAAAAAAAAAAAAAAAAAAAAAAAAAAAAAAAAAAAAAAAAAAAAAAAAAAAAAAAAAAAAAAAAAAAAAAAAAAAAAAAAAAAAAAAAAAAAAAAAAAAAAAAAAAAAAAAAAAAAAAAAAAAAAAAAAAAAAAAAAAAAAAAAAAAAAAAAAAAAAAAAAAAAAAAAAAAAAAAAAAAAAAAAAAAAAAAAAAAAAAAAAAAAAAAAAAAAAAAAAAAAAAAAAAAAAAAAAAAAAAAAAAAAAAAAAAAAAAAAAAAAAAAAAAAAAAAAAAAAAAAAAAAAAAAAAAAAAAAAAAAAAAAAAAAAAAAAAAAAAAAAAAAAAAAAAAAAAAAAAAAAAAAAAAAAAAAAAAAAAAAAAAAAAAAAAAAAAAAAAAAAAAAAAAAAAAAAAAAAAAAAAAAAAAAAAAAAAAAAAAAAAAAAAAAAAAAAAAAAAAAAAAAAAAAAAAAAAAAAAAAAAAAAAAAAAAAAAAAAAAAAAAAAAAAAAAAAAAAAAAAAAAAAAAAAAAAAAAAAAAAAAAAAAAAAAAAAAAAAAAAAAAAAAAAAAAAAAAAAAAAAAAAAAAAAAAAAAAAAAAAAAAAAAAAAAAAAAAAAAAAAAAAAAAAAAAAAAAAAAAAAAAAAAAAAAAAAAAAAAAAAAAAAAAAAAAAAAAAAAAAAAAAAAAAAAAAAAAAAAAAAAAAAAAAAAAAAAAAAAAAAAAAAAAAAAAAAAAAAAAAAAAAAAAAAAAAAAAAAAAAAAAAAAAAAAAAAAAAAAAAAAAAAAAAAAAAAAAAAAAAAAAAAAAAAAAAAAAAAAAAAAAAAAAAAAAAAAAAAAAAAAAAAAAAAAAAAAAAAAAAAAAAAAAAAAAAAAAAAAAAAAAAAAAAAAAAAAAAAAAAAAAAAAAAAAAAAAAAAAAAAAAAAAAAAAAAAAAAAAAAAAAAAAAAAAAAAAAAAAAAAAAAAAAAAAAAAAAAAAAAAAAAAAAAAAAAAAAAAAAAAAAAAAAAAAAAAAAAAAAAAAAAAAAAAAAAAAAAAAAAAAAAAAAAAAAAAAAAAAAAAAAAAAAAAAAAAAAAAAAAAAAAAAAAAAAAAAAAAAAAAAAAAAAAAAAAAAAAAAAAAAAAAAAAAAAAAAAAAAAAAAAAAAAAAAAAAAAAAAAAAAAAAAAAAAAAAAAAAAAAAAAAAAAAAAAAAAAAAAAAAAAAAAAAAAAAAAAAAAAAAAAAAAAAAAAAAAAAAAAAAAAAAAAAAAAAAAAAAAAAAAAAAAAAAAAAAAAAAAAAAAAAAAAAAAAAAAAAAAAAAAAAAAAAAAAAAAAAAAAAAAAAAAAAAAAAAAAAAAAAAAAAAAAAAAAAAAAAAAAAAAAAAAAAAAAAAAAAAAAAAAAAAAAAAAAAAAAAAAAAAAAAAAAAAAAAAAAAAAAAAAAAAAAAAAAAAAAAAAAAAAAAAAAAAAAAAAAAAAAAAAAAAAAAAAAAAAAAAAAAAAAAAAAAAAAAAAAAAAAAAAAAAAAAAAAAAAAAAAAAAAAAAAAAAAAAAAAAAAAAAAAAAAAAAAAAAAAAAAAAAAAAAAAAAAAAAAAAAAAAAAAAAAAAAAAAAAAAAAAAAAAAAAAAAAAAAAAAAAAAAAAAAAAAAAAAAAAAAAAAAAAAAAAAAAAAAAAAAAAAAAAAAAAAAAAAAAAAAAAAAAAAAAAAAAAAAAAAAAAAAAAAAAAAAAAAAAAAAAAAAAAAAAAAAAAAAAAAAAAAAAAAAAAAAAAAAAAAAAAAAAAAAAAAAAAAAAAAAAAAAAAAAAAAAAAAAAAAAAAAAAAAAAAAAAAAAAAAAAAAAAAAAAAAAAAAAAAAAAAAAAAAAAAAAAAAAAAAAAAAAAAAAAAAAAAAAAAAAAAAAAAAAAAAAAAAAAAAAAAAAAAAAAAAAAAAAAAAAAAAAAAAAAAAAAAAAAAAAAAAAAAAAAAAAAAAAAAAAAAAAAAAAAAAAAAAAAAAAAAAAAAAAAAAAAAAAAAAAAAAAAAAAAAAAAAAAAAAAAAAAAAAAAAAAAAAAAAAAAAAAAAAAAAAAAAAAAAAAAAAAAAAAAAAAAAAAAAAAAAAAAAAAAAAAAAAAAAAAAAAAAAAAAAAAAAAAAAAAAAAAAAAAAAAAAAAAAAAAAAAAAAAAAAAAAAAAAAAAAAAAAAAAAAAAAAAAAAAAAAAAAAAAAAAAAAAAAAAAAAAAAAAAAAAAAAAAAAAAAAAAAAAAAAAAAAAAAAAAAAAAAAAAAAAAAAAAAAAAAAAAAAAAAAAAAAAAAAAAAAAAAAAAAAAAAAAAAAAAAAAAAAAAAAAAAAAAAAAAAAAAAAAAAAAAAAAAAAAAAAAAAAAAAAAAAAAAAAAAAAAAAAAAAAAAAAAAAAAAAAAAAAAAAAAAAAAAAAAAAAAAAAAAAAAAAAAAAAAAAAAAAAAAAAAAAAAAAAAAAAAAAAAAAAAAAAAAAAAAAAAAAAAAAAAAAAAAAAAAAAAAAAAAAAAAAAAAAAAAAAAAAAAAAAAAAAAAAAAAAAAAAAAAAAAAAAAAAAAAAAAAAAAAAAAAAAAAAAAAAAAAAAAAAAAAAAAAAAAAAAAAAAAAAAAAAAAAAAAAAAAAAAAAAAAAAAAAAAAAAAAAAAAAAAAAAAAAAAAAAAAAAAAAAAAAAAAAAAAAAAAAAAAAAAAAAAAAAAAAAAAAAAAAAAAAAAAAAAAAAAAAAAAAAAAAAAAAAAAAAAAAAAAAAAAAAAAAAAAAAAAAAAAAAAAAAAAAAAAAAAAAAAAAAAAAAAAAAAAAAAAAAAAAAAAAAAAAAAAAAAAAAAAAAAAAAAAAAAAAAAAAAAAAAAAAAAAAAAAAAAAAAAAAAAAAAAAAAAAAAAAAAAAAAAAAAAAAAAAAAAAAAAAAAAAAAAAAAAAAAAAAAAAAAAAAAAAAAAAAAAAAAAAAAAAAAAAAAAAAAAAAAAAAAAAAAAAAAAAAAAAAAAAAAAAAAAAAAAAAAAAAAAAAAAAAAAAAAAAAAAAAAAAAAAAAAAAAAAAAAAAAAAAAAAAAAAAAAAAAAAAAAAAAAAAAAAAAAAAAAAAAAAAAAAAAAAAAAAAAAAAAAAAAAAAAAAAAAAAAAAAAAAAAAAAAAAAAAAAAAAAAAAAAAAAAAAAAAAAAAAAAAAAAAAAAAAAAAAAAAAAAAAAAAAAAAAAAAAAAAAAAAAAAAAAAAAAAAAAAAAAAAAAAAAAAAAAAAAAAAAAAAAAAAAAAAAAAAAAAAAAAAAAAAAAAAAAAAAAAAAAAAAAAAAAAAAAAAAAAAAAAAAAAAAAAAAAAAAAAAAAAAAAAAAAAAAAAAAAAAAAAAAAAAAAAAAAAAAAAAAAAAAAAAAAAAPZYQPijZYXPIc2GYjg4GLkQxu9UBD7pB+ozCFO1nfr3sTbI3Mz/oNVxx/ZXRups27mSD5K8lXKUvxjZnA9s5r6k2nk=</c2pa:manifest></metadata>
<g clip-path="url(#clip0_1332_1716)">
<path d="M14.3427 0.0394287H9.36914V5.09081H14.3427V0.0394287Z" fill="#0C111D"></path>
<path d="M14.3427 35.4034H9.36914V40.4548H14.3427V35.4034Z" fill="#0C111D"></path>
<path d="M9.36809 5.09216H4.39453V10.1428H9.36809V5.09216Z" fill="#0C111D"></path>
<path d="M9.36809 30.3508H4.39453V35.4022H9.36809V30.3508Z" fill="#0C111D"></path>
<path d="M4.39418 10.142H-0.580078V30.3503H4.39418V10.142Z" fill="#0C111D"></path>
<path d="M65.8018 4.57924V4.55221C65.8018 2.94303 64.6398 1.60204 63.0015 1.60204C61.3638 1.60204 60.2277 2.916 60.2277 4.52657V4.55221C60.2277 6.16278 61.3898 7.50446 63.0281 7.50446C64.6664 7.50446 65.8018 6.18842 65.8018 4.57924ZM58.1016 4.57924V4.55221C58.1016 1.88271 60.1752 -0.302368 63.0287 -0.302368C65.8809 -0.302368 67.9286 1.85776 67.9286 4.52657V4.55221C67.9286 7.2231 65.855 9.40956 63.0021 9.40956C60.1486 9.40956 58.1016 7.24874 58.1016 4.57924Z" fill="#0C111D"></path>
<path d="M75.6965 4.62332C76.7132 4.62332 77.3068 4.00654 77.3068 3.20125V3.17353C77.3068 2.24835 76.6736 1.75285 75.6563 1.75285H74.0842V4.62332H75.6965ZM72.0508 -0.112061H75.8282C78.0335 -0.112061 79.3682 1.21576 79.3682 3.13472V3.16036C79.3682 5.33505 77.7033 6.46189 75.6303 6.46189H74.0842V9.27831H72.0508V-0.112061Z" fill="#0C111D"></path>
<path d="M83.1738 -0.112061H90.1473V1.72651H85.1949V3.63092H89.553V5.4688H85.1949V7.43974H90.2135V9.27762H83.1738V-0.112061Z" fill="#0C111D"></path>
<path d="M94.4746 -0.112061H96.3504L100.681 5.66977V-0.112061H102.689V9.27762H100.959L96.4814 3.30867V9.27762H94.4746V-0.112061Z" fill="#0C111D"></path>
<path d="M61.9324 17.2991H59.1191V15.394H66.7798V17.2991H63.9658V24.7851H61.9324V17.2991Z" fill="#0C111D"></path>
<path d="M71.1152 15.3937H78.0894V17.2322H73.1363V19.138H77.4944V20.9745H73.1363V22.9469H78.1549V24.7847H71.1152V15.3937Z" fill="#0C111D"></path>
<path d="M82.0332 20.1167V20.0883C82.0332 17.4195 84.014 15.233 86.8539 15.233C88.5973 15.233 89.6413 15.8242 90.4997 16.6828L89.2046 18.1984C88.4922 17.5422 87.7649 17.1388 86.841 17.1388C85.2825 17.1388 84.1601 18.4528 84.1601 20.064V20.089C84.1601 21.6996 85.2559 23.0412 86.841 23.0412C87.8979 23.0412 88.5448 22.6123 89.2715 21.9407L90.5652 23.2699C89.6147 24.3018 88.5577 24.9463 86.7748 24.9463C84.0543 24.9457 82.0332 22.8119 82.0332 20.1167Z" fill="#0C111D"></path>
<path d="M94.6328 15.3937H96.6669V19.111H100.418V15.3937H102.452V24.7847H100.418V21.0147H96.6669V24.7847H94.6328V15.3937Z" fill="#0C111D"></path>
<path d="M107.303 15.3937H109.178L113.511 21.1755V15.3937H115.518V24.7847H113.788L109.311 18.8158V24.7847H107.303V15.3937Z" fill="#0C111D"></path>
<path d="M127.05 20.1167V20.0883C127.05 18.4798 125.887 17.1381 124.249 17.1381C122.612 17.1381 121.475 18.4521 121.475 20.0634V20.0883C121.475 21.6989 122.638 23.0406 124.276 23.0406C125.913 23.0406 127.05 21.7259 127.05 20.1167ZM119.35 20.1167V20.0883C119.35 17.4195 121.423 15.233 124.276 15.233C127.128 15.233 129.175 17.3939 129.175 20.0634V20.0883C129.175 22.7592 127.102 24.9457 124.249 24.9457C121.397 24.9457 119.35 22.7855 119.35 20.1167Z" fill="#0C111D"></path>
<path d="M133.189 15.394H135.223V22.907H139.833V24.7851H133.189V15.394Z" fill="#0C111D"></path>
<path d="M150.366 20.1167V20.0883C150.366 18.4798 149.204 17.1381 147.565 17.1381C145.928 17.1381 144.792 18.4521 144.792 20.0634V20.0883C144.792 21.6989 145.954 23.0406 147.592 23.0406C149.23 23.0406 150.366 21.7259 150.366 20.1167ZM142.666 20.1167V20.0883C142.666 17.4195 144.74 15.233 147.593 15.233C150.445 15.233 152.493 17.3939 152.493 20.0634V20.0883C152.493 22.7592 150.419 24.9457 147.566 24.9457C144.712 24.9457 142.666 22.7855 142.666 20.1167Z" fill="#0C111D"></path>
<path d="M155.828 20.117V20.0885C155.828 17.4197 157.876 15.2333 160.675 15.2333C162.34 15.2333 163.343 15.69 164.308 16.5202L163.027 18.0906C162.313 17.4877 161.679 17.1384 160.61 17.1384C159.13 17.1384 157.954 18.4662 157.954 20.0636V20.0885C157.954 21.8065 159.117 23.0671 160.755 23.0671C161.494 23.0671 162.155 22.8793 162.67 22.5044V21.162H160.623V19.3789H164.638V23.4566C163.687 24.2751 162.379 24.9459 160.689 24.9459C157.809 24.9459 155.828 22.8932 155.828 20.117Z" fill="#0C111D"></path>
<path d="M171.434 21.0826L167.881 15.3937H170.259L172.464 19.1644L174.71 15.3937H177.021L173.468 21.0431V24.7847H171.434V21.0826Z" fill="#0C111D"></path>
<path d="M59.1152 30.917H66.1543V32.7951H61.1486V34.7944H65.5606V36.6725H61.1486V40.3081H59.1152V30.917Z" fill="#0C111D"></path>
<path d="M70.1895 36.283V30.917H72.2228V36.2303C72.2228 37.7578 72.9754 38.5499 74.2173 38.5499C75.4592 38.5499 76.2118 37.7862 76.2118 36.2976V30.917H78.2452V36.2158C78.2452 39.0599 76.6737 40.455 74.1907 40.455C71.7083 40.455 70.1895 39.0468 70.1895 36.283Z" fill="#0C111D"></path>
<path d="M82.3496 30.917H84.2247L88.5575 36.6995V30.917H90.5643V40.3081H88.8346L84.3571 34.337V40.3081H82.3496V30.917Z" fill="#0C111D"></path>
<path d="M98.1048 38.4425C99.769 38.4425 100.892 37.3018 100.892 35.6406V35.6115C100.892 33.9503 99.769 32.7812 98.1048 32.7812H96.5334V38.4425H98.1048V38.4425ZM94.5 30.917H98.1055C101.012 30.917 103.019 32.9441 103.019 35.5858V35.6115C103.019 38.2547 101.012 40.3074 98.1055 40.3074H94.5V30.917Z" fill="#0C111D"></path>
<path d="M34.2379 0.0394287H29.2637V5.09081H34.2379V0.0394287Z" fill="#0C111D"></path>
<path d="M39.2118 30.353H34.2383V35.4044H39.2118V30.353Z" fill="#0C111D"></path>
<path d="M34.2379 35.4058H29.2637V40.4564H34.2379V35.4058Z" fill="#0C111D"></path>
<path d="M39.2118 5.09216H34.2383V10.1435H39.2118V5.09216Z" fill="#0C111D"></path>
<path d="M44.1891 10.1445H39.2148V30.3529H44.1891V10.1445Z" fill="#0C111D"></path>
</g>
<defs>
<clipPath id="clip0_1332_1716">
<rect width="178" height="40" fill="white"></rect>
</clipPath>
</defs>
</svg>