<svg width="141" height="51" viewBox="0 0 141 51" fill="none" xmlns="http://www.w3.org/2000/svg" xmlns:c2pa="http://c2pa.org/manifest"><metadata><c2pa:manifest>AAAWgmp1bWIAAAAeanVtZGMycGEAEQAQgAAAqgA4m3EDYzJwYQAAABZcanVtYgAAAEdqdW1kYzJtYQARABCAAACqADibcQN1cm46YzJwYTo3MWU4MzAwYy05NzAzLTRjZGYtYWRmMS1iMjM0MjNiOThhOTIAAAADl2p1bWIAAAApanVtZGMyYXMAEQAQgAAAqgA4m3EDYzJwYS5hc3NlcnRpb25zAAAAALxqdW1iAAAARGp1bWRjYm9yABEAEIAAAKoAOJtxE2MycGEuaW5ncmVkaWVudC52MwAAAAAYYzJzaF1alepTXW+n6Z55NgVEOh4AAABwY2JvcqNpZGM6Zm9ybWF0bWltYWdlL3N2Zyt4bWxqaW5zdGFuY2VJRHgseG1wOmlpZDpiOTMzNzBlMi1lNTM5LTQ5OWQtOGU0OC0xMzJhODFmZmVkYWZscmVsYXRpb25zaGlwaHBhcmVudE9mAAAB4mp1bWIAAABBanVtZGNib3IAEQAQgAAAqgA4m3ETYzJwYS5hY3Rpb25zLnYyAAAAABhjMnNoAkf1GuRtoc8Eo2ZTV0bj+wAAAZljYm9yomdhY3Rpb25zgqJmYWN0aW9ua2MycGEub3BlbmVkanBhcmFtZXRlcnOha2luZ3JlZGllbnRzgaJjdXJseC1zZWxmI2p1bWJmPWMycGEuYXNzZXJ0aW9ucy9jMnBhLmluZ3JlZGllbnQudjNkaGFzaFggd7fjmyZr76+lrRTjmoy65tvUWTPmdqF1hZ0Ge3S9q9WkZmFjdGlvbngdY29tLmFudGhyb3BpYy5jbGF1ZGUucHJvdmlkZWRqcGFyYW1ldGVyc6F4H2NvbS5hbnRocm9waWMub3JpZ2luLWNvbmZpZGVuY2VndW5rbm93bmtkZXNjcmlwdGlvbnhmQ2xhdWRlIHByb3ZpZGVkIHRoaXMgZmlsZSBhdCB0aGUgcmVxdWVzdCBvZiBhIHVzZXIgYW5kIG1heSBoYXZlIGNyZWF0ZWQgb3IgbW9kaWZpZWQgdGhlIGZpbGUgY29udGVudHMubXNvZnR3YXJlQWdlbnShZG5hbWVmQ2xhdWRlcmFsbEFjdGlvbnNJbmNsdWRlZPUAAADIanVtYgAAAEBqdW1kY2JvcgARABCAAACqADibcRNjMnBhLmhhc2guZGF0YQAAAAAYYzJzaHipaGgXKgGkx/t1GmC/dY8AAACAY2JvcqVjYWxnZnNoYTI1NmNwYWRNAAAAAAAAAAAAAAAAAGRoYXNoWCD6qz2ML+QdESK7ply1mQ6JkzLWf/GJUZG8yBFF1NP++WRuYW1lbmp1bWJmIG1hbmlmZXN0amV4Y2x1c2lvbnOBomVzdGFydBigZmxlbmd0aBkeBAAAAj5qdW1iAAAAJ2p1bWRjMmNsABEAEIAAAKoAOJtxA2MycGEuY2xhaW0udjIAAAACD2Nib3KlY2FsZ2ZzaGEyNTZpc2lnbmF0dXJleE1zZWxmI2p1bWJmPS9jMnBhL3VybjpjMnBhOjcxZTgzMDBjLTk3MDMtNGNkZi1hZGYxLWIyMzQyM2I5OGE5Mi9jMnBhLnNpZ25hdHVyZWppbnN0YW5jZUlEeCx4bXA6aWlkOjcyZmI5ZDgwLWRjYjEtNDg3MC1iYjY5LTdhMDQ0NzdiZmIzNHJjcmVhdGVkX2Fzc2VydGlvbnODomN1cmx4LXNlbGYjanVtYmY9YzJwYS5hc3NlcnRpb25zL2MycGEuaW5ncmVkaWVudC52M2RoYXNoWCB3t+ObJmvvr6WtFOOajLrm29RZM+Z2oXWFnQZ7dL2r1aJjdXJseCpzZWxmI2p1bWJmPWMycGEuYXNzZXJ0aW9ucy9jMnBhLmFjdGlvbnMudjJkaGFzaFggOPbnIlkjNTaRk76OmrIHrwj6LrQPkM+5IIkIijThiMuiY3VybHgpc2VsZiNqdW1iZj1jMnBhLmFzc2VydGlvbnMvYzJwYS5oYXNoLmRhdGFkaGFzaFggmjYZ4ALglRESMXbzXa8lPHIPTgGcfMxqlFUFjSDsnTB0Y2xhaW1fZ2VuZXJhdG9yX2luZm+jZG5hbWVvQW50aHJvcGljIEZpbGVzZ3ZlcnNpb25lMS4wLjBrc3BlY1ZlcnNpb25lMi40LjAAABA4anVtYgAAAChqdW1kYzJjcwARABCAAACqADibcQNjMnBhLnNpZ25hdHVyZQAAABAIY2JvctKEWQISogEmGCFZAgowggIGMIIBjaADAgECAhRA5aAK7sI50L64g/oGQgU9Z1UTADAKBggqhkjOPQQDAzBJMRcwFQYDVQQKEw5BbnRocm9waWMsIFBCQzEuMCwGA1UEAxMlQW50aHJvcGljIENvbnRlbnQgQ3JlZGVudGlhbHMgUm9vdCBDQTAeFw0yNjA4MDcxODQzNTZaFw0yODA4MDYxOTQzNTZaMEQxFzAVBgNVBAoTDkFudGhyb3BpYywgUEJDMSkwJwYDVQQDEyBBbnRocm9waWMgQ2xhdWRlIENvbnRlbnQgU2lnbmluZzBZMBMGByqGSM49AgEGCCqGSM49AwEHA0IABJh6CmvLUBgFFNU0vUKlOVtE6djd17L5SuwX0LemFisBM3dkd/3cyjxFA3Qo5S46fX0/ihY0VZ7mfb9KF703t5OjWDBWMA4GA1UdDwEB/wQEAwIHgDAVBgNVHSUEDjAMBgorBgEEAYPoXgIBMAwGA1UdEwEB/wQCMAAwHwYDVR0jBBgwFoAUzlHiBIFOZFsj+OPEz5o+nMHXXMIwCgYIKoZIzj0EAwMDZwAwZAIwMXMdFJ4BetLLVY7ORuE9noqbbAZOZn/aArXyTwFAZfKrPzxF2vPoJNf1+UCdg1XGAjBwX1zd9WGqYkqmL5SFqw1QySjr1zJfpJM9+1rdDwSPLMOPOjKuiXjoU/pUUeG9RwmhY3BhZFkNngAAAAAAAAAAAAAAAAAAAAAAAAAAAAAAAAAAAAAAAAAAAAAAAAAAAAAAAAAAAAAAAAAAAAAAAAAAAAAAAAAAAAAAAAAAAAAAAAAAAAAAAAAAAAAAAAAAAAAAAAAAAAAAAAAAAAAAAAAAAAAAAAAAAAAAAAAAAAAAAAAAAAAAAAAAAAAAAAAAAAAAAAAAAAAAAAAAAAAAAAAAAAAAAAAAAAAAAAAAAAAAAAAAAAAAAAAAAAAAAAAAAAAAAAAAAAAAAAAAAAAAAAAAAAAAAAAAAAAAAAAAAAAAAAAAAAAAAAAAAAAAAAAAAAAAAAAAAAAAAAAAAAAAAAAAAAAAAAAAAAAAAAAAAAAAAAAAAAAAAAAAAAAAAAAAAAAAAAAAAAAAAAAAAAAAAAAAAAAAAAAAAAAAAAAAAAAAAAAAAAAAAAAAAAAAAAAAAAAAAAAAAAAAAAAAAAAAAAAAAAAAAAAAAAAAAAAAAAAAAAAAAAAAAAAAAAAAAAAAAAAAAAAAAAAAAAAAAAAAAAAAAAAAAAAAAAAAAAAAAAAAAAAAAAAAAAAAAAAAAAAAAAAAAAAAAAAAAAAAAAAAAAAAAAAAAAAAAAAAAAAAAAAAAAAAAAAAAAAAAAAAAAAAAAAAAAAAAAAAAAAAAAAAAAAAAAAAAAAAAAAAAAAAAAAAAAAAAAAAAAAAAAAAAAAAAAAAAAAAAAAAAAAAAAAAAAAAAAAAAAAAAAAAAAAAAAAAAAAAAAAAAAAAAAAAAAAAAAAAAAAAAAAAAAAAAAAAAAAAAAAAAAAAAAAAAAAAAAAAAAAAAAAAAAAAAAAAAAAAAAAAAAAAAAAAAAAAAAAAAAAAAAAAAAAAAAAAAAAAAAAAAAAAAAAAAAAAAAAAAAAAAAAAAAAAAAAAAAAAAAAAAAAAAAAAAAAAAAAAAAAAAAAAAAAAAAAAAAAAAAAAAAAAAAAAAAAAAAAAAAAAAAAAAAAAAAAAAAAAAAAAAAAAAAAAAAAAAAAAAAAAAAAAAAAAAAAAAAAAAAAAAAAAAAAAAAAAAAAAAAAAAAAAAAAAAAAAAAAAAAAAAAAAAAAAAAAAAAAAAAAAAAAAAAAAAAAAAAAAAAAAAAAAAAAAAAAAAAAAAAAAAAAAAAAAAAAAAAAAAAAAAAAAAAAAAAAAAAAAAAAAAAAAAAAAAAAAAAAAAAAAAAAAAAAAAAAAAAAAAAAAAAAAAAAAAAAAAAAAAAAAAAAAAAAAAAAAAAAAAAAAAAAAAAAAAAAAAAAAAAAAAAAAAAAAAAAAAAAAAAAAAAAAAAAAAAAAAAAAAAAAAAAAAAAAAAAAAAAAAAAAAAAAAAAAAAAAAAAAAAAAAAAAAAAAAAAAAAAAAAAAAAAAAAAAAAAAAAAAAAAAAAAAAAAAAAAAAAAAAAAAAAAAAAAAAAAAAAAAAAAAAAAAAAAAAAAAAAAAAAAAAAAAAAAAAAAAAAAAAAAAAAAAAAAAAAAAAAAAAAAAAAAAAAAAAAAAAAAAAAAAAAAAAAAAAAAAAAAAAAAAAAAAAAAAAAAAAAAAAAAAAAAAAAAAAAAAAAAAAAAAAAAAAAAAAAAAAAAAAAAAAAAAAAAAAAAAAAAAAAAAAAAAAAAAAAAAAAAAAAAAAAAAAAAAAAAAAAAAAAAAAAAAAAAAAAAAAAAAAAAAAAAAAAAAAAAAAAAAAAAAAAAAAAAAAAAAAAAAAAAAAAAAAAAAAAAAAAAAAAAAAAAAAAAAAAAAAAAAAAAAAAAAAAAAAAAAAAAAAAAAAAAAAAAAAAAAAAAAAAAAAAAAAAAAAAAAAAAAAAAAAAAAAAAAAAAAAAAAAAAAAAAAAAAAAAAAAAAAAAAAAAAAAAAAAAAAAAAAAAAAAAAAAAAAAAAAAAAAAAAAAAAAAAAAAAAAAAAAAAAAAAAAAAAAAAAAAAAAAAAAAAAAAAAAAAAAAAAAAAAAAAAAAAAAAAAAAAAAAAAAAAAAAAAAAAAAAAAAAAAAAAAAAAAAAAAAAAAAAAAAAAAAAAAAAAAAAAAAAAAAAAAAAAAAAAAAAAAAAAAAAAAAAAAAAAAAAAAAAAAAAAAAAAAAAAAAAAAAAAAAAAAAAAAAAAAAAAAAAAAAAAAAAAAAAAAAAAAAAAAAAAAAAAAAAAAAAAAAAAAAAAAAAAAAAAAAAAAAAAAAAAAAAAAAAAAAAAAAAAAAAAAAAAAAAAAAAAAAAAAAAAAAAAAAAAAAAAAAAAAAAAAAAAAAAAAAAAAAAAAAAAAAAAAAAAAAAAAAAAAAAAAAAAAAAAAAAAAAAAAAAAAAAAAAAAAAAAAAAAAAAAAAAAAAAAAAAAAAAAAAAAAAAAAAAAAAAAAAAAAAAAAAAAAAAAAAAAAAAAAAAAAAAAAAAAAAAAAAAAAAAAAAAAAAAAAAAAAAAAAAAAAAAAAAAAAAAAAAAAAAAAAAAAAAAAAAAAAAAAAAAAAAAAAAAAAAAAAAAAAAAAAAAAAAAAAAAAAAAAAAAAAAAAAAAAAAAAAAAAAAAAAAAAAAAAAAAAAAAAAAAAAAAAAAAAAAAAAAAAAAAAAAAAAAAAAAAAAAAAAAAAAAAAAAAAAAAAAAAAAAAAAAAAAAAAAAAAAAAAAAAAAAAAAAAAAAAAAAAAAAAAAAAAAAAAAAAAAAAAAAAAAAAAAAAAAAAAAAAAAAAAAAAAAAAAAAAAAAAAAAAAAAAAAAAAAAAAAAAAAAAAAAAAAAAAAAAAAAAAAAAAAAAAAAAAAAAAAAAAAAAAAAAAAAAAAAAAAAAAAAAAAAAAAAAAAAAAAAAAAAAAAAAAAAAAAAAAAAAAAAAAAAAAAAAAAAAAAAAAAAAAAAAAAAAAAAAAAAAAAAAAAAAAAAAAAAAAAAAAAAAAAAAAAAAAAAAAAAAAAAAAAAAAAAAAAAAAAAAAAAAAAAAAAAAAAAAAAAAAAAAAAAAAAAAAAAAAAAAAAAAAAAAAAAAAAAAAAAAAAAAAAAAAAAAAAAAAAAAAAAAAAAAAAAAAAAAAAAAAAAAAAAAAAAAAAAAAAAAAAAAAAAAAAAAAAAAAAAAAAAAAAAAAAAAAAAAAAAAAAAAAAAAAAAAAAAAAAAAAAAAAAAAAAAAAAAAAAAAAAAAAAAAAAAAAAAAAAAAAAAAAAAAAAAAAAAAAAAAAAAAAAAAAAAAAAAAAAAAAAAAAAAAAAAAAAAAAAAAAAAAAAAAAAAAAAAAAAAAAAAAAAAAAAAAAAAAAAAAAAAAAAAAAAAAAAAAAAAAAAAAAAAAAAAAAAAAAAAAAAAAAAAAAAAAAAAAAAAAAAAAAAAAAAAAAAAAAAAAAAAAAAAAAAAAAAAAAAAAAAAAAAAAAAAAAAAAAAAAAAAAAAAAAAAAAAAAAAAAAAAAAAAAAAAAAAAAAAAAAAAAAAAAAAAAAAAAAAAAAAAAAAAAAAAAAAAAAAAAAAAAAAAAAAAAAAAAAAAAAAAAAAAAAAAAAAAAAAAAAAAAAAAAAAAAAAAAAAAAAAAAAAAAAAAAAAAAAAAAAAAAAAAAAAAAAAAAAAAAAAAAAAAAAAAAAAAAAAAAAAAAAAAAAAAAAAAAAAAAAAAAAAAAAAAAAAAAAAAAAAAAAAAAAAAAAAAAAAAAAAAAAAAAAAAAAAAAAAAAAAAAAAAAAAAAAAAAAAAAAAAAAAAAAAAAAAAAAAAAAAAAAAAAAAAAAAAAAAAAAAAAAAAAAAAAAAAAAAAAAAAAAAAAAAAAAAAAAAAAAAAAAAAAAAAAAAAAAAAAAAAAAAAAAAAAAAAAAAAAAAAAAAAAAAAAAAAAAAAAAAAAAAAAAAAAAAAAAAAAAAAAAAAAAAAAAAAAAAAAAAAAAAAAAAAAAAAAAAAAAAAAAAAAAAAAAAAAAAAAAAAAAAAAAAAAAAAAAAAAAAAAAAAAAAAAAAAAAAAAAAAAAAAAAAAAAAAAAAAAAAAAAAAAAAAAAAAAAAAAAAAAAAAAAAAAAAAAAAAAAAAAAAAAAAAAAAAAAAAAAAAAAAAAAAAAAAAAAAAAAAAAAAAAAAAAAAAAAAAAAAAAAAAAAAAAAAAAAAAAAAAAAAAAAAAAAAAAAAAAAAAAAAAAAAAAAAAAAAAAAAAAAAAAAAAAAAAAAAAAAAAAAAAAAAAAAAAAAAAAAAAAAAAAAAAAAAAAAAAAAAAAAAAAAAAAAAAAAAAAAAAAAAAAAAAAAAAAAAAAAAAAAAAAAAAAAAAAAAAAAAAAAAAAAAAAAAAAAAAAAAAAAAAAAAAAAAAAAAAAAAAAAAAAAAAAAAAAAAAAAAAAAAAAAAAAAAAAAAAAAAAAAAAAAAAAAAAAAAAAAAAAAAAAAAAAAAAAAAAAAAAAAAAAAAAAAAAAAAAAAAAAAAAAAAAAAAAAAAAAAAAAAAAAAAAAAAAAAAAAAAAAAAAAAAAAAAAAAAAAAAAAAAAAAAAAAAAAAAAAAAAAAAAAAAAAAAAAAAAAAAAAAAAAAAAAAAAAAAAAAAAAAAAAAAAAAAAAAAAAAAAAAAAAAAAAAAAAAAAAAAAAAAAAAAAAAAAAAAAAAAAAAAAAAAAAAAAAAAAAAAAAAAAAAAAAAAAAAAAAAAAAAAAAAAAAAAAAAAAAAAAAAAAAAAAAAAAAAAAAAAAAAAAAAAAAAAAAAAAAAAAAAAAAAAAAAAAAAAAAAAAAAAAAPZYQAi1s9XosxJxuGIribI160DdGe68J8HtGI3O5C3TwcVQ+ct61D2bpnsPc+rZ47JuSsBn4ZIHNlnftOt5Y0urYjw=</c2pa:manifest></metadata>
<path d="M0 1.90254C0 0.851798 1.00949 0 2.25477 0H23.921V10.0919H2.25477C1.0095 10.0919 0 9.24013 0 8.18939V1.90254Z" fill="black"></path>
<path d="M0 22.0864C0 21.0356 0.851796 20.1838 1.90254 20.1838H8.18938C9.24013 20.1838 10.0919 21.0356 10.0919 22.0864V28.3732C10.0919 29.424 9.24013 30.2758 8.18939 30.2758H1.90254C0.851798 30.2758 0 29.424 0 28.3732V22.0864Z" fill="black"></path>
<path d="M28.373 0C29.4236 1.22394e-05 30.2755 0.852094 30.2757 1.90266V18.2815C30.2757 19.3322 29.4237 20.1841 28.373 20.1841H22.0863C21.0355 20.1841 20.1836 19.3322 20.1836 18.2815V0H28.373Z" fill="black"></path>
<path d="M20.1836 32.1784C20.1836 31.1277 21.0354 30.2759 22.0861 30.2759H28.373C29.4237 30.2759 30.2755 31.1277 30.2755 32.1784V48.5572C30.2755 49.6079 29.4237 50.4597 28.373 50.4597H22.0861C21.0354 50.4597 20.1836 49.6079 20.1836 48.5572V32.1784Z" fill="black"></path>
<path d="M20.1836 32.1782C20.1836 31.1274 21.0354 30.2756 22.0861 30.2756H28.373C29.4237 30.2756 30.2755 31.1274 30.2755 32.1782V40.3676H20.1836V32.1782Z" fill="black"></path>
<path d="M104.892 14.2233C104.892 14.6347 104.921 15.0998 104.979 15.6182C105.036 16.1284 105.169 16.6224 105.374 17.0997C105.588 17.5685 105.901 17.9551 106.312 18.2595C106.731 18.5639 107.295 18.7169 108.003 18.717C108.381 18.717 108.756 18.6544 109.126 18.531C109.497 18.4076 109.83 18.1977 110.127 17.9014C110.431 17.597 110.674 17.1815 110.855 16.6551C111.036 16.1284 111.126 15.4616 111.126 14.6551V8.20733C111.126 7.98479 111.307 7.80439 111.529 7.80439H113.711C113.933 7.80439 114.114 7.98479 114.114 8.20733V20.733C114.114 20.9556 113.933 21.136 113.711 21.136H111.887C111.665 21.136 111.484 20.9556 111.484 20.733V19.6505C111.145 20.0546 110.748 20.4073 110.287 20.7041C109.431 21.2472 108.378 21.5186 107.127 21.5186C106.14 21.5186 105.325 21.354 104.683 21.0248C104.041 20.6956 103.531 20.2758 103.152 19.7656C102.774 19.2555 102.494 18.7125 102.313 18.1366C102.132 17.5607 102.012 17.0176 101.955 16.5075C101.905 15.9893 101.881 15.5692 101.881 15.2483V8.20733C101.881 7.98479 102.061 7.80439 102.284 7.80439H104.489C104.712 7.80439 104.892 7.98479 104.892 8.20733V14.2233Z" fill="black"></path>
<path fill-rule="evenodd" clip-rule="evenodd" d="M61.3856 7.43451C62.768 7.43451 63.9407 7.75936 64.9034 8.40939C65.8745 9.05124 66.5947 9.96058 67.0637 11.1373C67.4957 12.2211 67.6803 13.4832 67.6168 14.9231C67.6075 15.1342 67.4313 15.2975 67.22 15.2975H57.9484C58.0484 16.2544 58.3283 17.0238 58.7935 17.6053C59.386 18.346 60.25 18.7169 61.3856 18.717C62.118 18.717 62.7477 18.5559 63.2744 18.2349C63.716 17.9631 64.0738 17.593 64.3472 17.1248C64.4483 16.9517 64.6514 16.8585 64.8432 16.9166L67.0168 17.5746C67.2462 17.6441 67.3656 17.8979 67.2576 18.1119C66.7492 19.119 66.0222 19.9172 65.0766 20.5064C64.0151 21.1729 62.8424 21.5058 61.5587 21.5059C60.2093 21.5059 59.0239 21.2145 58.0035 20.6303C56.9833 20.0461 56.1851 19.2352 55.6091 18.1985C55.0413 17.1617 54.7573 15.9682 54.7572 14.6187C54.7572 13.1621 55.0367 11.8982 55.5963 10.8284C56.1559 9.75051 56.9341 8.91527 57.9297 8.32282C58.9254 7.73046 60.0773 7.43452 61.3856 7.43451ZM61.5096 10.0385C60.2916 10.0385 59.386 10.4176 58.7935 11.1747C58.4129 11.6557 58.1554 12.2811 58.0193 13.0506H64.5719C64.4645 12.1831 64.2358 11.5123 63.8794 11.0389C63.3775 10.3724 62.5874 10.0385 61.5096 10.0385Z" fill="black"></path>
<path fill-rule="evenodd" clip-rule="evenodd" d="M93.4957 7.43451C94.8369 7.43458 96.0051 7.73494 97.0008 8.33561C97.9964 8.93627 98.77 9.76701 99.3214 10.8284C99.8727 11.8817 100.149 13.0959 100.149 14.4702C100.149 15.8527 99.8692 17.075 99.3096 18.1366C98.7583 19.1898 97.9845 20.0168 96.9889 20.6175C95.9933 21.21 94.8286 21.5058 93.4957 21.5059C92.1626 21.5059 90.9972 21.2055 90.0015 20.6048C89.006 20.004 88.2321 19.1769 87.6808 18.1238C87.1378 17.0623 86.8663 15.8443 86.8663 14.4702C86.8663 13.0714 87.146 11.8452 87.7054 10.792C88.265 9.73865 89.0431 8.91533 90.0389 8.32282C91.0346 7.73033 92.1873 7.43451 93.4957 7.43451ZM93.4957 10.2244C92.6975 10.2244 92.0388 10.4053 91.5204 10.7674C91.0102 11.1213 90.631 11.6188 90.3841 12.2607C90.1373 12.8943 90.0143 13.6309 90.0143 14.4702C90.0143 15.7622 90.3065 16.7954 90.8908 17.5689C91.4833 18.3341 92.352 18.717 93.4957 18.717C94.6805 18.7169 95.5611 18.3215 96.137 17.5316C96.713 16.7416 97.0008 15.721 97.0008 14.4702C97.0007 13.1782 96.7085 12.1495 96.1242 11.3842C95.54 10.6109 94.6639 10.2245 93.4957 10.2244Z" fill="black"></path>
<path d="M121.778 7.43451C122.815 7.43451 123.733 7.59461 124.532 7.91555C125.338 8.23647 125.988 8.69349 126.481 9.28589C126.894 9.78163 127.175 10.3497 127.324 10.9895C127.373 11.2012 127.226 11.4027 127.012 11.441L124.774 11.8411C124.548 11.8815 124.338 11.7222 124.265 11.504C124.14 11.1263 123.911 10.8148 123.58 10.5697C123.144 10.2407 122.56 10.055 121.828 10.0139C121.129 9.97272 120.565 10.0805 120.137 10.3355C119.709 10.5824 119.495 10.9316 119.495 11.3842C119.495 11.6393 119.582 11.8573 119.755 12.0384C119.927 12.2194 120.273 12.4004 120.791 12.5814C121.318 12.7624 122.1 12.9851 123.137 13.2484C124.198 13.5199 125.046 13.8321 125.68 14.1859C126.321 14.5315 126.782 14.9478 127.062 15.4333C127.35 15.9187 127.494 16.507 127.494 17.1981C127.494 18.5393 127.004 19.5925 126.025 20.3578C125.054 21.1231 123.708 21.5058 121.989 21.5059C120.343 21.5059 119.006 21.1358 117.977 20.3952C117.053 19.7298 116.454 18.8217 116.18 17.6714C116.128 17.4532 116.281 17.2439 116.503 17.2098L118.769 16.8603C118.977 16.8283 119.171 16.9625 119.245 17.1592C119.429 17.6514 119.739 18.0514 120.174 18.3589C120.708 18.7374 121.383 18.9265 122.198 18.9265C122.914 18.9265 123.466 18.7862 123.853 18.5064C124.247 18.2185 124.445 17.8274 124.445 17.3338C124.445 17.0295 124.371 16.7869 124.223 16.6059C124.083 16.4166 123.77 16.2357 123.284 16.0628C122.799 15.89 122.054 15.672 121.05 15.4087C119.931 15.1125 119.042 14.7957 118.384 14.4584C117.726 14.1127 117.253 13.7047 116.965 13.2356C116.677 12.7666 116.533 12.1991 116.533 11.5327C116.533 10.7016 116.751 9.97687 117.187 9.35967C117.623 8.74264 118.232 8.26926 119.014 7.94015C119.795 7.60289 120.717 7.43455 121.778 7.43451Z" fill="black"></path>
<path d="M54.7474 5.00704C54.7474 5.22958 54.567 5.40998 54.3444 5.40998H53.2039C52.6363 5.41003 52.2126 5.55393 51.9329 5.84184C51.6614 6.12156 51.5257 6.49181 51.5256 6.95248V7.80439H54.3444C54.567 7.80439 54.7474 7.98479 54.7474 8.20733V9.73487C54.7474 9.95741 54.567 10.1378 54.3444 10.1378H51.5256V20.7328C51.5256 20.9555 51.3451 21.136 51.1225 21.136H48.954C48.7313 21.136 48.5508 20.9555 48.5508 20.7328V10.1378H46.8053C46.5827 10.1378 46.4023 9.95741 46.4023 9.73487V8.20733C46.4023 7.98479 46.5827 7.80439 46.8053 7.80439H48.5508V7.59485C48.5508 7.25758 48.5626 6.88727 48.5872 6.48422C48.6119 6.07275 48.6825 5.66467 48.7977 5.26143C48.913 4.85837 49.123 4.49264 49.4273 4.16359C49.8059 3.74389 50.213 3.45524 50.6491 3.29888C51.0935 3.13433 51.5296 3.04383 51.9575 3.02737C52.3854 3.00269 52.76 2.98999 53.0809 2.98999H54.3444C54.567 2.98999 54.7474 3.17039 54.7474 3.39293V5.00704Z" fill="black"></path>
<path d="M75.8918 7.7552C76.1925 7.73164 76.487 7.73332 76.7751 7.7604C76.9713 7.77883 77.1136 7.94876 77.1136 8.14573V10.0442C77.1136 10.3128 76.854 10.5081 76.587 10.4785C76.3267 10.4496 76.0454 10.4473 75.7432 10.4713C75.2331 10.5124 74.7725 10.6563 74.3611 10.9032C73.9496 11.1253 73.6121 11.4094 73.3488 11.7551C73.0938 12.1007 72.9036 12.4952 72.7802 12.9395C72.6568 13.3756 72.5953 13.8489 72.5953 14.359V20.733C72.5953 20.9556 72.4149 21.136 72.1923 21.136H70.0116C69.7891 21.136 69.6087 20.9556 69.6087 20.733V8.20733C69.6087 7.98479 69.7891 7.80439 70.0116 7.80439H71.8343C72.0568 7.80439 72.2372 7.98479 72.2372 8.20733V9.93811C72.338 9.75787 72.4481 9.58512 72.5707 9.42165C72.8504 9.05139 73.1835 8.74639 73.5702 8.50776C73.8993 8.28557 74.2622 8.11277 74.6572 7.98933C75.0603 7.85774 75.4722 7.77988 75.8918 7.7552Z" fill="black"></path>
<path d="M85.011 7.7552C85.3119 7.7316 85.6069 7.73329 85.8954 7.7604C86.0915 7.77883 86.2338 7.94876 86.2338 8.14573V10.0442C86.2338 10.3128 85.9742 10.5081 85.7072 10.4785C85.4469 10.4496 85.1656 10.4473 84.8634 10.4713C84.3532 10.5124 83.8918 10.6563 83.4803 10.9032C83.069 11.1253 82.7313 11.4096 82.468 11.7551C82.2131 12.1006 82.0238 12.4954 81.9004 12.9395C81.777 13.3756 81.7155 13.8489 81.7155 14.359V20.733C81.7155 20.9556 81.5351 21.136 81.3125 21.136H79.1308C78.9083 21.136 78.7279 20.9556 78.7279 20.733V8.20733C78.7279 7.98479 78.9083 7.80439 79.1308 7.80439H80.9545C81.177 7.80439 81.3574 7.98479 81.3574 8.20733V9.93811C81.4582 9.75788 81.5683 9.58511 81.6909 9.42165C81.9707 9.05135 82.3036 8.7464 82.6904 8.50776C83.0195 8.28557 83.3824 8.11277 83.7774 7.98933C84.1803 7.8578 84.5916 7.7799 85.011 7.7552Z" fill="black"></path>
<path d="M64.9005 37.7522L68.4239 28.4729C68.4833 28.3164 68.6333 28.213 68.8006 28.213H70.91C71.193 28.213 71.3878 28.497 71.2859 28.761L64.1658 47.2117C64.1058 47.3671 63.9564 47.4696 63.7899 47.4696H61.8519C61.5723 47.4696 61.3776 47.1916 61.4733 46.9288L63.4682 41.4501L58.3052 28.7678C58.1973 28.5028 58.3922 28.213 58.6784 28.213H60.9027C61.0688 28.213 61.2178 28.3148 61.2781 28.4694L64.9005 37.7522Z" fill="black"></path>
<path d="M52.3274 27.8431C53.3643 27.8431 54.2826 28.0032 55.0809 28.3241C55.8872 28.645 56.5369 29.1021 57.0306 29.6945C57.4437 30.1902 57.7247 30.7582 57.8729 31.3981C57.9219 31.6097 57.7748 31.8113 57.561 31.8495L55.3236 32.2496C55.0971 32.2901 54.8874 32.1308 54.8148 31.9125C54.6891 31.5349 54.4606 31.2234 54.1296 30.9782C53.6935 30.6493 53.1096 30.4636 52.3775 30.4224C51.6781 30.3813 51.1144 30.4891 50.6865 30.7441C50.2586 30.991 50.0442 31.3402 50.0441 31.7928C50.0441 32.0479 50.131 32.2659 50.3038 32.447C50.4767 32.628 50.8223 32.809 51.3407 32.99C51.8674 33.171 52.6492 33.3937 53.6859 33.6569C54.7474 33.9285 55.5953 34.2416 56.2289 34.5954C56.8705 34.941 57.3313 35.3564 57.611 35.8418C57.899 36.3273 58.0428 36.9155 58.0429 37.6066C58.0429 38.948 57.5534 40.0021 56.5742 40.7674C55.6032 41.5326 54.2576 41.9154 52.5379 41.9154C50.8921 41.9154 49.5549 41.5444 48.5262 40.8038C47.6021 40.1384 47.0029 39.2309 46.7295 38.0808C46.6776 37.8626 46.8302 37.6534 47.0518 37.6192L49.3185 37.269C49.5261 37.2369 49.7202 37.3712 49.794 37.5678C49.9788 38.06 50.2884 38.46 50.7229 38.7675C51.2578 39.146 51.9328 39.3351 52.7474 39.3351C53.4634 39.3351 54.0153 39.1948 54.4021 38.915C54.7968 38.627 54.9943 38.236 54.9943 37.7424C54.9942 37.4381 54.92 37.1954 54.772 37.0144C54.6321 36.8252 54.319 36.6442 53.8335 36.4714C53.3479 36.2986 52.6032 36.0805 51.5994 35.8172C50.4805 35.521 49.5918 35.2043 48.9335 34.8669C48.2752 34.5213 47.802 34.1132 47.514 33.6442C47.226 33.1752 47.0821 32.6077 47.0821 31.9413C47.0821 31.1102 47.3001 30.3854 47.7363 29.7682C48.1724 29.1512 48.7815 28.6778 49.5631 28.3487C50.3447 28.0115 51.2662 27.8431 52.3274 27.8431Z" fill="black"></path>
<path d="M77.5356 27.8431C78.5724 27.8431 79.4899 28.0032 80.2881 28.3241C81.0945 28.6451 81.7451 29.102 82.2388 29.6945C82.6519 30.1902 82.9322 30.7582 83.0802 31.3981C83.1291 31.6097 82.9821 31.8113 82.7682 31.8495L80.5308 32.2496C80.3044 32.2901 80.0946 32.1308 80.0221 31.9125C79.8967 31.5349 79.6687 31.2234 79.3378 30.9782C78.9016 30.6491 78.3172 30.4636 77.5848 30.4224C76.8853 30.3813 76.3217 30.489 75.8937 30.7441C75.4659 30.991 75.2514 31.3403 75.2514 31.7928C75.2514 32.0478 75.3383 32.2659 75.5111 32.447C75.6839 32.628 76.0295 32.8089 76.5479 32.99C77.0746 33.171 77.8563 33.3936 78.8931 33.6569C79.9547 33.9285 80.8024 34.2416 81.4361 34.5954C82.0778 34.941 82.5385 35.3564 82.8182 35.8418C83.1062 36.3273 83.2511 36.9155 83.2511 37.6066C83.2511 38.948 82.7607 40.0021 81.7814 40.7674C80.8104 41.5325 79.4648 41.9154 77.7451 41.9154C76.0993 41.9154 74.7621 41.5444 73.7335 40.8038C72.8095 40.1385 72.2109 39.2309 71.9377 38.0808C71.8858 37.8626 72.0384 37.6534 72.2601 37.6192L74.5267 37.269C74.7343 37.2369 74.9284 37.3712 75.0023 37.5678C75.187 38.06 75.4966 38.46 75.9311 38.7675C76.4659 39.1457 77.1403 39.335 77.9547 39.3351C78.6706 39.3351 79.2225 39.1948 79.6093 38.915C80.0041 38.627 80.2015 38.236 80.2015 37.7424C80.2015 37.4381 80.1273 37.1954 79.9792 37.0144C79.8393 36.8253 79.5269 36.6442 79.0417 36.4714C78.5562 36.2986 77.8106 36.0806 76.8066 35.8172C75.6877 35.521 74.799 35.2043 74.1407 34.8669C73.4824 34.5213 73.0092 34.1132 72.7212 33.6442C72.4333 33.1752 72.2894 32.6076 72.2893 31.9413C72.2893 31.1102 72.5074 30.3854 72.9435 29.7682C73.3797 29.1512 73.9886 28.6778 74.7703 28.3487C75.5521 28.0113 76.474 27.8431 77.5356 27.8431Z" fill="black"></path>
<path fill-rule="evenodd" clip-rule="evenodd" d="M100.366 27.8431C101.748 27.8431 102.921 28.168 103.884 28.818C104.855 29.4598 105.575 30.3692 106.044 31.5459C106.513 32.7226 106.691 34.1096 106.575 35.7061H96.9289C97.0288 36.6629 97.3089 37.4324 97.774 38.0139C98.3664 38.7545 99.2306 39.1255 100.366 39.1255C101.099 39.1255 101.728 38.9644 102.255 38.6435C102.697 38.3717 103.054 38.0016 103.328 37.5334C103.429 37.3603 103.632 37.2671 103.824 37.3252L105.997 37.9832C106.227 38.0527 106.346 38.3065 106.238 38.5204C105.73 39.5276 105.003 40.3257 104.057 40.9149C102.996 41.5815 101.823 41.9154 100.539 41.9154C99.1897 41.9154 98.0044 41.6231 96.984 41.0389C95.9637 40.4547 95.1657 39.6438 94.5896 38.6071C94.0218 37.5703 93.7377 36.3768 93.7377 35.0273C93.7377 33.5709 94.0174 32.3076 94.5768 31.2379C95.1364 30.1599 95.9145 29.3239 96.9102 28.7314C97.9059 28.139 99.0579 27.8431 100.366 27.8431ZM100.49 30.447C99.2721 30.447 98.3665 30.8261 97.774 31.5832C97.3935 32.0642 97.1359 32.6897 96.9998 33.4592H103.553C103.446 32.5916 103.216 31.9209 102.86 31.4475C102.358 30.781 101.568 30.4471 100.49 30.447Z" fill="black"></path>
<path d="M134.629 27.8431C135.665 27.8431 136.583 28.0033 137.381 28.3241C138.188 28.6451 138.838 29.102 139.332 29.6945C139.745 30.1902 140.025 30.7582 140.173 31.3981C140.222 31.6097 140.075 31.8113 139.861 31.8496L137.625 32.2496C137.398 32.2901 137.189 32.1308 137.116 31.9125C136.99 31.5349 136.762 31.2234 136.431 30.9782C135.995 30.6491 135.41 30.4636 134.678 30.4224C133.978 30.3813 133.415 30.489 132.987 30.7441C132.559 30.9909 132.345 31.3404 132.345 31.7928C132.345 32.0478 132.431 32.266 132.604 32.447C132.777 32.628 133.123 32.809 133.641 32.99C134.168 33.171 134.949 33.3937 135.986 33.6569C137.048 33.9285 137.895 34.2416 138.529 34.5954C139.171 34.9411 139.632 35.3563 139.912 35.8418C140.2 36.3272 140.344 36.9156 140.344 37.6066C140.344 38.948 139.855 40.0021 138.875 40.7674C137.904 41.5327 136.558 41.9154 134.838 41.9154C133.193 41.9153 131.855 41.5443 130.826 40.8038C129.903 40.1385 129.304 39.2308 129.031 38.0808C128.979 37.8626 129.131 37.6534 129.353 37.6192L131.62 37.269C131.827 37.2369 132.021 37.3712 132.095 37.5678C132.28 38.06 132.59 38.46 133.024 38.7675C133.559 39.1459 134.234 39.3351 135.049 39.3351C135.765 39.335 136.316 39.1948 136.702 38.915C137.097 38.627 137.296 38.2361 137.296 37.7424C137.295 37.4382 137.221 37.1954 137.073 37.0144C136.933 36.8252 136.62 36.6442 136.135 36.4714C135.649 36.2986 134.905 36.0805 133.901 35.8172C132.781 35.521 131.892 35.2043 131.234 34.8669C130.576 34.5213 130.102 34.1132 129.814 33.6442C129.526 33.1752 129.382 32.6076 129.382 31.9413C129.382 31.1102 129.6 30.3854 130.037 29.7682C130.473 29.1511 131.082 28.6779 131.863 28.3487C132.645 28.0113 133.567 27.8431 134.629 27.8431Z" fill="black"></path>
<path d="M89.1141 28.213H92.6245C92.847 28.213 93.0274 28.3934 93.0274 28.6159V30.1434C93.0274 30.366 92.847 30.5464 92.6245 30.5464H89.1141V35.9284C89.1141 36.4631 89.1187 36.932 89.1269 37.3351C89.1434 37.7383 89.2294 38.0677 89.3857 38.3228C89.6819 38.8165 90.1552 39.0925 90.8052 39.1501C91.332 39.1968 91.9184 39.1836 92.5642 39.1113C92.8088 39.0839 93.0274 39.2719 93.0274 39.518V41.2099C93.0274 41.4039 92.8893 41.5711 92.6978 41.6018C91.931 41.7251 91.1768 41.7757 90.4353 41.7541C89.5961 41.7376 88.8431 41.5856 88.1766 41.2976C87.5101 41.0014 87.0034 40.5363 86.6578 39.9027C86.3534 39.3268 86.1932 38.7385 86.1767 38.1379C86.1603 37.5371 86.1521 36.8576 86.1521 36.1005V30.5464H84.1351C83.9125 30.5464 83.7321 30.366 83.7321 30.1434V28.6159C83.7321 28.3934 83.9125 28.213 84.1351 28.213H86.1521V24.9131C86.1521 24.6906 86.3325 24.5102 86.5551 24.5102H88.7112C88.9337 24.5102 89.1141 24.6906 89.1141 24.9131V28.213Z" fill="black"></path>
<path d="M122.645 27.8795C124.118 27.8795 125.245 28.3247 126.027 29.2134C126.817 30.0939 127.212 31.2538 127.212 32.6939V41.1416C127.212 41.3641 127.032 41.5445 126.809 41.5445H124.64C124.418 41.5445 124.237 41.3641 124.237 41.1416V33.4474C124.237 32.5341 124.011 31.8219 123.559 31.3117C123.106 30.7933 122.493 30.5336 121.719 30.5336C121.242 30.5336 120.814 30.6449 120.435 30.8671C120.057 31.081 119.756 31.4023 119.534 31.8302C119.312 32.2498 119.201 32.7521 119.201 33.3363V41.1416C119.201 41.3641 119.02 41.5445 118.798 41.5445H116.642C116.419 41.5445 116.239 41.3641 116.239 41.1416V33.4838C116.239 32.5542 116.012 31.8301 115.56 31.3117C115.107 30.7933 114.489 30.5336 113.708 30.5336C112.951 30.5337 112.341 30.7934 111.881 31.3117C111.428 31.8301 111.202 32.5053 111.202 33.3363V41.1416C111.202 41.3641 111.022 41.5445 110.799 41.5445H108.605C108.383 41.5445 108.203 41.3641 108.203 41.1416V28.6159C108.203 28.3934 108.383 28.213 108.605 28.213H110.429C110.652 28.213 110.832 28.3934 110.832 28.6159V29.659C111.214 29.1803 111.682 28.7882 112.239 28.4845C112.971 28.0813 113.79 27.8795 114.695 27.8795C115.691 27.8795 116.522 28.0939 117.189 28.5219C117.787 28.8937 118.248 29.389 118.574 30.0063C118.993 29.3564 119.543 28.8449 120.226 28.4727C120.95 28.0777 121.756 27.8795 122.645 27.8795Z" fill="black"></path>
</svg>